<svg xmlns="http://www.w3.org/2000/svg" viewBox="0 0 120 120" width="120" height="120">
  <defs>
    <radialGradient id="bgG" cx="50%" cy="50%" r="50%">
      <stop offset="0%" stop-color="#1c2330"/><stop offset="100%" stop-color="#0d1117"/>
    </radialGradient>
    <linearGradient id="piG" x1="0%" y1="0%" x2="100%" y2="100%">
      <stop offset="0%" stop-color="#f97316"/><stop offset="100%" stop-color="#ea580c"/>
    </linearGradient>
    <linearGradient id="linG" x1="0%" y1="0%" x2="100%" y2="100%">
      <stop offset="0%" stop-color="#22c55e"/><stop offset="100%" stop-color="#16a34a"/>
    </linearGradient>
    <linearGradient id="winG" x1="0%" y1="0%" x2="100%" y2="100%">
      <stop offset="0%" stop-color="#3b82f6"/><stop offset="100%" stop-color="#2563eb"/>
    </linearGradient>
    <linearGradient id="monG" x1="0%" y1="0%" x2="100%" y2="100%">
      <stop offset="0%" stop-color="#a855f7"/><stop offset="100%" stop-color="#9333ea"/>
    </linearGradient>
  </defs>
  <circle cx="60" cy="60" r="58" fill="url(#bgG)" stroke="#30363d" stroke-width="1.5"/>
  <path d="M60,60 L60,6 A54,54 0 0,0 6,60 Z"   fill="url(#piG)"  opacity="0.2"/>
  <path d="M60,60 L114,60 A54,54 0 0,0 60,6 Z"  fill="url(#linG)" opacity="0.2"/>
  <path d="M60,60 L60,114 A54,54 0 0,0 114,60 Z" fill="url(#winG)" opacity="0.2"/>
  <path d="M60,60 L6,60 A54,54 0 0,0 60,114 Z"  fill="url(#monG)" opacity="0.2"/>
  <line x1="60" y1="10" x2="60" y2="110" stroke="#30363d" stroke-width="0.8"/>
  <line x1="10" y1="60" x2="110" y2="60" stroke="#30363d" stroke-width="0.8"/>
  <text x="30" y="50" font-family="serif" font-size="26" font-weight="bold"
        fill="url(#piG)" text-anchor="middle">&#960;</text>
  <ellipse cx="88" cy="34" rx="9" ry="11" fill="none" stroke="url(#linG)" stroke-width="2"/>
  <ellipse cx="88" cy="34" rx="5" ry="6"  fill="url(#linG)" opacity="0.5"/>
  <circle cx="85" cy="31" r="1.5" fill="#0d1117"/>
  <circle cx="91" cy="31" r="1.5" fill="#0d1117"/>
  <rect x="78" y="68" width="7" height="7" fill="url(#winG)" rx="1"/>
  <rect x="87" y="68" width="7" height="7" fill="url(#winG)" rx="1" opacity="0.75"/>
  <rect x="78" y="77" width="7" height="7" fill="url(#winG)" rx="1" opacity="0.75"/>
  <rect x="87" y="77" width="7" height="7" fill="url(#winG)" rx="1" opacity="0.5"/>
  <circle cx="32" cy="86" r="12" fill="none" stroke="url(#monG)" stroke-width="2"/>
  <text x="32" y="90.5" font-family="serif" font-size="14" font-weight="bold"
        fill="url(#monG)" text-anchor="middle">$</text>
  <circle cx="60" cy="60" r="7" fill="#161b22" stroke="#30363d" stroke-width="1.5"/>
  <circle cx="60" cy="60" r="3.5" fill="#f97316"/>
</svg>
